<?xml version="1.0" encoding="utf-8"?>
<!-- Generator: Adobe Illustrator 27.3.1, SVG Export Plug-In . SVG Version: 6.00 Build 0)  -->
<svg version="1.1" id="Layer_1" xmlns="http://www.w3.org/2000/svg" xmlns:xlink="http://www.w3.org/1999/xlink" x="0px" y="0px"
	 viewBox="0 0 1024 551.3" style="enable-background:new 0 0 1024 551.3;" xml:space="preserve">
<style type="text/css">
	.st0{fill:#F16823;}
	.st1{fill:#787878;}
	.st2{fill:#A97C50;}
</style>
<g>
	<path class="st2" d="M974.05,312.84c-4.97,31.16-30.83,29.51-30.83,29.51c-22.54,4.64-32.82-19.56-32.82-19.56l20.89-25.2
		c5.97-5.3,9.28-30.5,9.28-30.5c49.4-40.45,64.57-99.96,64.57-99.96v0c0,0-15.17-5.97-31.08-10.44c0,0-18.4-75.59-79.07-85.54
		c0,0-49.23-0.5-50.23,79.07c0,0-114.88,11.94-200.91,39.29c0,0-111.91-52.34-214.76,14.78l-137.83-55.06
		c-70.62-34.31-113.39-40.53-113.39-40.53c-47.49-11.44-93.99,35.81-93.99,35.81c-12.43,14.92,1.49,22.13,1.49,22.13l229.26,137.26
		l-63.65,26.85c-16.25-36.14-59.34-70.29-59.34-70.29l-33.82-0.33c-35.14,24.2-32.32,84.21-32.32,84.21l-48.32,0.33
		c-23.37-0.25-23.12,11.19-23.12,11.19c-5.47,18.65,73.85,31.08,73.85,31.08l4.72,16.12c27.85,87.24,399.5,34.77,399.5,34.77
		c77.25-14.26,124.66-10.61,124.66-10.61c76.25,19.23,211.19,22.21,211.19,22.21c66.97,0.33,82.22-30.5,82.22-30.5l-118.03-52.05
		c33.48-8.62,61-32.82,61-32.82c11.93,28.84,52.05,27.52,52.05,27.52c64.98-10.94,41.77-124.99,41.77-124.99L974.05,312.84z
		 M621.47,197.96c0,0-93-2.98-110.4,12.43h54.21c0,0-35.66,10.65-66.58,21.7l-44.33-17.71C476.4,200.55,531.81,175.55,621.47,197.96
		z M228.6,388.43L97.81,360.08l-26.85-1.99c0,0,0.99-7.46,45.75,0l134.27,25.86L228.6,388.43z M412.6,393.4
		c0,0-126.32,32.82-118.36,0l-0.99-16.41l-58.18-8.45l-57.19-90.51c0,0,11.44,1.49,62.66,71.61l89.02-35.81l88.52,54.21
		C418.07,368.04,430.5,383.95,412.6,393.4z M192.29,150.22c0,0-43.76-17.9-74.1-1.99l-21.88,3.48l33.32-17.9
		c0,0,38.29-14.42,77.58,4.97l460,187.48L192.29,150.22z M918.02,417.27h-8.29l-91.83-31.5L695.9,412.63l-15.58-1.66l136.92-35.81
		L918.02,417.27z M877.08,261.61c-49.23,33.32-104.93,47.74-104.93,47.74c-37.3,15.91-80.07,0-80.07,0l-155.17-61.99
		c39.38-14.82,188.1-68.35,306.35-77.75c0,0,5.47,48.74,15.42,52.71v-56.69c0,0,61.91-7.55,128.14,9.58l-0.84,0.37
		c-38.04,39.29-70.62,46-70.62,46c-7.96-1.49-14.67-40.78-14.67-40.78c-8.21,12.93-3.9,43.18-3.9,43.18l-19.73,4.81V261.61z
		 M892,256.64c0,0,13.9,22.93,33.32,14.92c0,0,0.17,11.77-16.66,11.77C908.66,283.33,896.49,287.03,892,256.64z"/>
	<path class="st2" d="M818.4,270.06c0,0-6.46-10.93-6.96-38.28l-151.18,41.28c0,0,30.83,2.98,143.22-16.41L818.4,270.06z"/>
	
		<ellipse transform="matrix(0.9793 -0.2023 0.2023 0.9793 -38.2095 139.5068)" class="st2" cx="663.24" cy="256.64" rx="13.43" ry="6.71"/>
	
		<ellipse transform="matrix(0.9793 -0.2023 0.2023 0.9793 -34.8936 146.7824)" class="st2" cx="700.48" cy="244.06" rx="13.43" ry="6.71"/>
	
		<ellipse transform="matrix(0.9793 -0.2023 0.2023 0.9793 -32.2734 153.4284)" class="st2" cx="734.3" cy="234.57" rx="13.43" ry="6.71"/>
	
		<ellipse transform="matrix(0.9793 -0.2023 0.2023 0.9793 -29.5224 160.5356)" class="st2" cx="770.44" cy="224.67" rx="13.43" ry="6.71"/>
	
		<ellipse transform="matrix(0.9793 -0.2023 0.2023 0.9793 -26.9926 167.3797)" class="st2" cx="805.18" cy="215.71" rx="13.43" ry="6.71"/>
</g>
</svg>
